<?xml version="1.0" standalone="no"?>
<!DOCTYPE svg PUBLIC "-//W3C//DTD SVG 20010904//EN"
 "http://www.w3.org/TR/2001/REC-SVG-20010904/DTD/svg10.dtd">
<svg version="1.0" xmlns="http://www.w3.org/2000/svg"
 width="675.000000pt" height="795.000000pt" viewBox="0 0 675.000000 795.000000"
 preserveAspectRatio="xMidYMid meet">

<g transform="translate(0.000000,795.000000) scale(0.100000,-0.100000)"
fill="#ee579e" stroke="none">
<path d="M2955 7897 l-27 -22 2 -285 c0 -168 5 -289 11 -296 5 -6 32 -14 60
-16 27 -3 56 -11 62 -17 8 -8 12 -50 12 -121 l0 -110 348 -2 347 -3 0 110 c0
61 4 116 9 124 5 7 29 16 55 18 25 3 51 12 57 19 8 10 11 102 11 301 0 285 0
287 -22 305 -21 17 -53 18 -461 18 l-438 0 -26 -23z"/>
<path d="M935 6750 c-21 -16 -41 -30 -46 -30 -4 0 -29 -20 -56 -45 -26 -24
-79 -69 -118 -99 -111 -87 -163 -130 -222 -183 -20 -18 -40 -33 -44 -33 -13 0
-11 -29 3 -46 7 -9 25 -28 39 -42 36 -38 112 -132 132 -164 19 -30 41 -35 81
-16 41 18 101 -4 115 -42 7 -22 16 -30 35 -30 15 0 27 7 30 18 4 9 40 44 82
77 41 33 89 72 106 88 17 15 34 27 38 27 4 0 27 18 51 41 24 22 54 45 67 49
33 14 27 39 -13 56 -34 14 -35 16 -35 69 0 47 3 57 25 71 14 9 24 20 23 24 -4
10 -78 96 -131 153 -22 22 -46 51 -54 64 -21 32 -62 30 -108 -7z"/>
<path d="M5779 6748 c-17 -18 -41 -49 -54 -68 -12 -19 -43 -57 -69 -83 -41
-43 -44 -51 -33 -69 32 -54 37 -65 37 -95 0 -25 -9 -41 -40 -69 -47 -44 -50
-59 -12 -78 15 -8 50 -35 77 -60 28 -25 53 -46 57 -46 4 0 30 -21 58 -47 29
-27 60 -53 71 -58 10 -6 33 -29 50 -53 28 -38 59 -56 59 -34 0 5 11 22 25 37
13 16 25 38 27 50 3 17 10 20 48 18 25 -1 59 -4 77 -8 28 -6 34 -3 60 32 15
21 36 47 46 58 93 100 117 132 117 160 0 36 0 36 -225 215 -98 78 -138 110
-173 140 -118 100 -154 110 -203 58z"/>
<path d="M3100 6675 c-136 -8 -220 -17 -251 -28 -25 -9 -79 -20 -120 -23 -41
-4 -93 -15 -115 -25 -23 -9 -68 -20 -100 -24 -33 -4 -74 -16 -92 -26 -18 -10
-52 -22 -75 -25 -23 -4 -55 -15 -72 -24 -16 -10 -48 -21 -70 -25 -22 -4 -51
-15 -65 -25 -14 -9 -41 -21 -60 -25 -19 -4 -46 -16 -59 -26 -12 -10 -39 -21
-60 -25 -20 -4 -49 -17 -64 -30 -16 -13 -37 -24 -47 -24 -9 0 -24 -7 -31 -16
-8 -9 -32 -25 -54 -36 -69 -33 -99 -50 -120 -69 -11 -9 -32 -21 -48 -24 -15
-4 -33 -16 -40 -26 -7 -10 -24 -23 -38 -29 -13 -6 -42 -24 -64 -41 -22 -16
-51 -38 -66 -47 -105 -70 -457 -397 -547 -509 -52 -64 -72 -91 -72 -98 0 -4
-13 -23 -30 -42 -16 -18 -30 -38 -30 -43 0 -6 -7 -10 -15 -10 -8 0 -15 -4 -15
-9 0 -4 -13 -25 -30 -46 -16 -21 -30 -46 -30 -56 0 -10 -8 -24 -18 -31 -20
-15 -66 -84 -76 -115 -4 -11 -18 -33 -31 -47 -14 -15 -25 -37 -25 -50 0 -12
-11 -32 -25 -44 -14 -12 -25 -31 -25 -43 0 -12 -11 -34 -25 -51 -14 -16 -25
-42 -25 -58 0 -18 -8 -34 -20 -43 -12 -9 -23 -31 -27 -53 -3 -22 -14 -46 -23
-56 -9 -9 -20 -35 -24 -59 -4 -24 -15 -57 -25 -74 -10 -16 -22 -51 -25 -77 -4
-26 -15 -57 -25 -70 -10 -13 -21 -49 -25 -80 -3 -31 -15 -72 -25 -90 -12 -21
-21 -63 -25 -118 -3 -47 -15 -107 -25 -135 -22 -58 -46 -363 -46 -580 1 -224
24 -524 46 -576 10 -25 21 -84 25 -130 4 -50 14 -99 25 -121 10 -20 21 -61 25
-90 4 -29 15 -66 26 -83 10 -17 21 -54 24 -81 4 -27 15 -59 25 -72 10 -13 21
-43 25 -67 3 -24 15 -52 25 -61 10 -9 19 -30 19 -45 0 -16 11 -40 25 -55 14
-15 25 -36 25 -48 0 -12 7 -32 15 -46 8 -14 23 -43 33 -65 11 -22 27 -46 36
-54 9 -7 16 -24 16 -37 0 -13 11 -33 24 -46 13 -13 26 -35 30 -49 3 -14 16
-37 28 -52 46 -53 65 -83 72 -109 3 -15 15 -32 26 -38 11 -6 20 -17 20 -26 0
-8 7 -17 16 -21 8 -3 33 -33 54 -67 21 -33 58 -83 82 -110 77 -87 415 -420
453 -446 20 -14 62 -45 93 -70 31 -25 75 -57 97 -71 75 -49 90 -58 140 -94 28
-19 55 -35 62 -35 6 0 24 -11 40 -24 16 -14 42 -28 57 -32 15 -3 30 -13 33
-20 3 -8 25 -19 50 -26 25 -6 47 -17 50 -25 3 -7 25 -18 49 -24 23 -6 50 -20
60 -30 9 -10 27 -19 39 -19 12 0 42 -10 66 -23 24 -13 59 -27 77 -30 19 -4 46
-15 60 -26 15 -10 49 -22 76 -26 27 -3 61 -15 75 -25 15 -10 53 -20 87 -24 34
-3 77 -14 95 -25 20 -11 64 -21 107 -25 40 -3 100 -15 132 -26 56 -19 87 -20
574 -20 481 0 518 1 577 20 35 10 98 23 140 28 41 5 90 17 108 27 18 9 59 19
90 22 31 3 70 14 86 24 17 10 51 21 75 25 25 3 57 15 72 25 15 11 42 22 60 26
18 3 53 17 77 30 24 13 53 23 63 23 10 0 36 11 56 25 20 14 44 25 52 25 9 0
31 11 50 25 19 14 44 25 55 25 12 0 30 9 40 20 10 11 27 22 39 26 11 4 34 17
49 30 16 13 36 24 46 24 10 0 26 9 36 20 10 11 27 22 39 26 11 4 44 26 72 50
28 24 56 44 62 44 6 0 40 24 76 52 36 29 82 65 101 80 69 51 250 220 332 310
7 7 18 19 25 25 50 48 158 183 158 198 0 6 12 22 28 37 59 57 62 61 118 166
10 17 23 32 29 32 7 0 19 17 29 38 25 57 47 95 66 117 10 11 23 36 29 57 7 20
18 39 26 42 8 3 18 24 21 46 4 24 14 45 24 50 11 6 21 27 25 50 4 24 14 44 26
50 10 6 19 21 19 34 0 12 11 45 25 72 14 27 28 65 31 84 4 19 13 42 20 51 8 8
19 42 25 75 7 32 18 67 26 76 8 9 19 51 24 93 5 41 18 92 28 113 11 22 22 71
26 120 4 47 15 102 26 125 17 39 19 72 19 529 0 454 -1 489 -19 530 -10 24
-22 82 -26 128 -4 46 -16 104 -27 129 -10 24 -21 72 -24 105 -4 34 -14 75 -24
92 -10 17 -21 51 -25 75 -4 24 -16 55 -25 69 -10 14 -22 44 -26 65 -4 22 -13
49 -20 61 -8 11 -20 42 -28 68 -8 26 -21 55 -29 64 -8 10 -20 36 -26 58 -6 23
-17 44 -25 47 -7 3 -18 25 -24 50 -7 25 -18 47 -26 50 -7 3 -16 17 -20 31 -7
29 -70 131 -86 141 -5 3 -10 17 -10 30 0 15 -10 31 -25 41 -14 9 -25 22 -25
29 0 7 -7 18 -16 25 -8 8 -23 30 -33 51 -20 40 -22 43 -98 127 -29 31 -53 61
-53 66 0 10 -84 109 -150 178 -25 26 -50 53 -56 60 -17 20 -165 154 -199 179
-16 13 -48 38 -70 57 -69 58 -92 76 -129 102 -20 14 -53 37 -73 53 -20 15 -41
27 -47 27 -6 0 -19 8 -27 18 -9 9 -29 25 -45 34 -16 10 -36 22 -44 27 -8 5
-26 14 -40 21 -14 6 -47 24 -75 41 -27 16 -69 37 -91 48 -23 11 -45 24 -48 30
-4 6 -26 16 -49 22 -23 6 -53 19 -67 29 -14 10 -41 21 -60 25 -19 4 -44 15
-55 25 -11 9 -40 20 -65 24 -24 4 -58 15 -75 25 -16 11 -50 22 -74 26 -24 4
-58 15 -75 25 -17 10 -57 21 -89 25 -32 3 -77 15 -100 25 -23 10 -77 21 -119
24 -43 4 -97 14 -120 23 -29 10 -117 20 -263 29 -258 15 -303 15 -575 -1z
m637 -424 c32 -11 99 -22 150 -25 52 -3 112 -14 140 -24 26 -11 74 -22 105
-26 31 -3 72 -15 90 -25 18 -10 53 -22 78 -25 24 -4 52 -14 62 -23 9 -8 38
-19 63 -24 26 -5 58 -18 72 -29 14 -11 36 -20 48 -20 12 0 34 -9 49 -21 14
-11 43 -25 62 -31 20 -5 46 -18 57 -29 12 -10 29 -19 38 -19 10 0 30 -11 46
-24 16 -14 41 -28 55 -31 15 -4 34 -15 44 -26 9 -10 23 -19 31 -19 7 0 22 -9
32 -19 11 -11 33 -27 48 -36 15 -9 46 -29 68 -46 22 -16 52 -38 66 -47 106
-70 495 -446 529 -511 10 -20 37 -56 59 -81 23 -24 44 -52 47 -62 3 -10 10
-18 15 -18 5 0 18 -20 29 -45 11 -25 24 -45 30 -45 5 0 17 -15 25 -32 32 -66
54 -103 73 -123 11 -11 22 -35 26 -54 3 -19 15 -40 25 -47 10 -7 21 -30 24
-51 4 -21 15 -43 25 -50 12 -7 21 -27 25 -52 3 -22 14 -52 26 -67 11 -14 23
-42 27 -63 3 -20 14 -47 24 -61 10 -14 21 -46 25 -70 4 -25 15 -60 26 -78 10
-18 21 -63 25 -100 3 -37 15 -84 25 -105 12 -24 22 -76 28 -140 5 -56 17 -133
27 -172 13 -56 17 -117 17 -305 0 -203 -2 -248 -21 -330 -11 -52 -23 -132 -26
-176 -3 -54 -12 -93 -24 -115 -11 -19 -23 -64 -26 -103 -4 -37 -16 -85 -26
-106 -11 -21 -22 -57 -26 -79 -4 -22 -14 -50 -24 -61 -10 -11 -21 -40 -24 -65
-4 -24 -16 -55 -28 -70 -11 -14 -22 -44 -25 -66 -4 -23 -13 -44 -23 -49 -10
-5 -21 -26 -25 -47 -4 -20 -18 -47 -31 -60 -13 -12 -24 -32 -24 -44 0 -11 -11
-34 -25 -51 -14 -16 -25 -35 -25 -41 0 -7 -18 -37 -40 -67 -22 -30 -47 -71
-56 -90 -9 -19 -26 -45 -38 -57 -11 -12 -31 -32 -43 -45 -13 -13 -23 -29 -23
-35 0 -12 -81 -115 -129 -165 -37 -38 -50 -51 -64 -66 -6 -7 -18 -18 -25 -25
-7 -7 -18 -18 -25 -25 -7 -7 -18 -18 -25 -25 -7 -7 -18 -18 -25 -25 -13 -15
-18 -19 -84 -82 -73 -69 -184 -160 -195 -160 -6 0 -21 -10 -33 -22 -25 -26
-63 -53 -145 -103 -30 -19 -62 -41 -71 -49 -9 -9 -20 -16 -26 -16 -5 0 -30
-13 -54 -30 -24 -16 -51 -30 -60 -30 -9 0 -23 -8 -33 -18 -9 -11 -34 -24 -55
-31 -21 -6 -44 -18 -51 -26 -7 -8 -28 -17 -49 -21 -20 -4 -48 -15 -62 -25 -14
-10 -45 -22 -68 -28 -23 -5 -50 -16 -59 -25 -10 -8 -38 -18 -62 -22 -25 -4
-61 -15 -80 -24 -19 -10 -65 -22 -102 -28 -36 -6 -77 -17 -90 -26 -14 -9 -59
-18 -113 -22 -54 -4 -110 -15 -140 -27 -47 -19 -71 -21 -395 -21 -330 -1 -348
0 -405 21 -33 12 -95 24 -138 27 -45 3 -93 14 -115 24 -20 11 -63 22 -95 26
-32 3 -75 15 -95 25 -20 10 -57 21 -82 25 -24 4 -52 14 -62 22 -9 9 -36 20
-59 25 -23 6 -54 18 -68 28 -14 10 -42 21 -62 25 -21 4 -42 13 -49 21 -6 8
-28 19 -48 26 -20 7 -47 20 -60 30 -13 10 -36 20 -51 24 -16 3 -37 15 -47 26
-9 10 -23 19 -31 19 -7 0 -23 11 -34 25 -12 13 -35 27 -50 30 -16 4 -31 11
-35 16 -3 5 -22 21 -42 34 -21 14 -53 36 -72 50 -19 14 -48 34 -63 44 -25 17
-73 56 -156 131 -73 65 -172 164 -231 230 -36 39 -85 93 -110 118 -44 45 -72
84 -106 150 -10 17 -23 32 -30 32 -7 0 -16 9 -19 20 -4 11 -17 32 -29 48 -13
15 -27 38 -31 52 -4 14 -16 31 -25 37 -10 7 -21 25 -25 40 -3 14 -17 40 -31
56 -13 16 -24 33 -24 39 0 5 -9 22 -19 37 -11 15 -23 40 -27 56 -4 16 -18 44
-31 63 -12 19 -23 43 -23 52 0 10 -8 28 -18 41 -11 13 -22 41 -25 62 -3 20
-15 50 -26 66 -12 16 -24 51 -28 78 -3 26 -15 59 -25 73 -10 14 -21 48 -24 75
-3 28 -14 69 -24 91 -11 23 -22 77 -25 120 -4 44 -16 117 -28 164 -20 79 -22
108 -22 400 0 293 2 320 22 390 12 41 24 115 28 164 4 54 13 100 23 114 8 13
21 57 28 99 8 42 20 83 27 92 8 9 17 36 21 60 4 24 15 56 26 71 11 15 22 47
26 71 4 24 15 52 25 62 11 10 19 28 19 41 0 13 9 35 20 49 12 14 26 41 32 59
6 18 19 44 28 58 10 14 21 36 25 50 4 14 18 35 31 47 13 12 24 32 24 45 0 12
9 31 20 43 26 26 80 107 80 121 0 6 10 20 23 31 12 12 32 36 45 55 62 89 107
146 151 192 6 6 17 17 24 24 6 7 18 18 25 25 7 7 18 18 25 25 138 145 299 291
402 362 57 40 103 73 142 103 19 15 44 27 54 27 10 0 24 8 31 19 7 10 24 22
38 26 14 4 32 13 40 20 23 20 148 85 164 85 7 0 24 8 37 19 14 10 42 24 63 29
21 6 46 18 56 27 10 9 35 19 56 22 22 4 59 17 83 30 24 13 57 23 74 23 16 0
44 9 62 20 17 11 61 24 96 29 35 5 81 17 102 25 21 9 81 19 135 23 53 3 120
14 147 24 44 16 87 18 337 19 257 0 294 -2 345 -19z"/>
<path d="M3430 5914 c0 -5 0 -538 0 -1184 0 -659 -4 -1181 -9 -1189 -5 -7 -37
-30 -72 -50 -50 -29 -67 -45 -76 -71 -20 -59 -16 -112 12 -150 38 -52 46 -140
12 -140 -7 0 -24 -15 -39 -33 -55 -65 -88 -110 -88 -120 0 -5 -12 -24 -27 -42
-16 -18 -46 -53 -68 -79 -22 -26 -48 -65 -57 -87 -9 -21 -22 -39 -28 -39 -6 0
-16 -11 -22 -25 -6 -14 -17 -25 -25 -25 -7 0 -13 -4 -13 -8 0 -22 -90 -149
-137 -194 -13 -12 -23 -27 -23 -33 0 -13 -46 -77 -79 -111 -12 -12 -21 -25
-21 -29 0 -4 -10 -18 -22 -30 -13 -12 -38 -48 -57 -79 -19 -31 -42 -61 -53
-67 -10 -5 -18 -15 -18 -22 0 -7 -12 -23 -25 -36 -14 -13 -25 -29 -25 -35 0
-7 -9 -21 -19 -30 -11 -10 -25 -31 -31 -47 -7 -16 -18 -29 -26 -29 -7 0 -19
-10 -25 -22 -6 -12 -20 -31 -30 -42 -11 -11 -19 -27 -19 -35 0 -9 -22 -40 -48
-69 -64 -72 -91 -107 -99 -128 -6 -18 -40 -63 -82 -109 -9 -11 -34 -45 -54
-75 -52 -77 -76 -108 -121 -152 -43 -42 -42 -63 2 -73 17 -3 38 -15 48 -26 9
-10 23 -19 30 -19 7 0 26 -11 42 -25 17 -14 34 -25 39 -25 4 0 25 -11 44 -24
20 -14 48 -28 62 -31 14 -4 33 -15 43 -26 9 -10 25 -19 34 -19 10 0 33 -11 52
-23 19 -13 51 -27 72 -30 22 -3 48 -15 60 -25 12 -11 41 -22 66 -26 25 -4 56
-14 70 -23 14 -9 54 -22 90 -29 36 -7 85 -19 110 -28 25 -8 77 -19 115 -25 39
-5 99 -17 134 -26 55 -14 113 -16 395 -13 286 3 337 6 376 21 24 10 78 20 120
24 41 3 91 14 110 23 19 10 62 21 95 25 33 4 71 16 85 25 14 10 44 21 65 25
22 4 53 16 68 27 16 11 45 22 65 25 20 3 46 14 57 24 11 9 34 21 50 25 17 3
39 14 50 24 11 9 35 22 53 28 18 6 45 20 59 32 14 11 31 20 38 20 7 0 19 7 26
17 8 9 28 22 44 30 28 13 71 41 120 78 11 9 38 29 60 45 79 57 101 77 263 240
193 195 188 190 235 260 21 30 45 66 54 80 9 14 25 34 34 45 10 11 20 32 24
46 4 15 18 36 31 48 13 11 24 27 24 35 0 7 9 24 19 38 11 13 23 36 26 51 4 14
13 31 20 37 8 7 21 33 30 60 9 27 22 54 30 60 8 6 17 33 21 58 4 26 14 55 24
64 10 9 21 38 25 65 4 26 14 56 23 66 8 9 21 55 28 103 7 47 19 93 27 102 10
11 17 53 22 117 4 58 15 120 26 148 17 43 19 77 19 325 0 248 -2 282 -19 327
-11 28 -22 93 -26 145 -5 62 -14 106 -25 125 -10 17 -21 59 -25 95 -3 36 -15
79 -25 95 -10 17 -21 49 -25 72 -4 23 -15 53 -26 67 -10 13 -19 37 -19 54 0
16 -9 41 -21 56 -11 14 -25 43 -31 62 -5 20 -18 46 -29 57 -10 12 -19 29 -19
38 0 10 -11 30 -25 45 -14 15 -25 37 -25 49 0 12 -13 36 -30 53 -16 18 -30 36
-30 41 0 11 -39 73 -71 111 -36 44 -73 96 -99 138 -14 23 -33 44 -42 47 -10 4
-18 10 -18 15 0 19 -288 295 -354 339 -64 43 -82 57 -94 73 -7 10 -19 18 -27
18 -7 0 -26 11 -42 24 -15 13 -38 26 -49 30 -12 4 -29 15 -39 26 -10 11 -24
20 -31 20 -7 0 -25 11 -41 24 -15 13 -42 26 -59 30 -18 4 -40 16 -50 27 -9 10
-27 19 -40 19 -12 0 -35 11 -51 23 -15 13 -45 27 -66 30 -20 3 -49 15 -64 26
-14 12 -40 21 -58 21 -18 0 -52 11 -76 23 -24 13 -68 27 -98 31 -30 4 -70 15
-90 25 -22 11 -71 21 -126 25 -49 3 -112 13 -140 22 -55 18 -315 32 -315 18z"/>
</g>
</svg>
