<?xml version="1.0" standalone="no"?>
<!DOCTYPE svg PUBLIC "-//W3C//DTD SVG 20010904//EN"
 "http://www.w3.org/TR/2001/REC-SVG-20010904/DTD/svg10.dtd">
<svg version="1.0" xmlns="http://www.w3.org/2000/svg"
 width="756.000000pt" height="478.000000pt" viewBox="0 0 756.000000 478.000000"
 preserveAspectRatio="xMidYMid meet">

<g transform="translate(0.000000,478.000000) scale(0.100000,-0.100000)"
fill="#ee579e" stroke="none">
<path d="M1135 4759 c-12 -6 -26 -18 -32 -28 -13 -21 -626 -1335 -637 -1365
-3 -10 -1 -35 5 -53 14 -42 54 -62 113 -56 95 11 360 -54 489 -119 180 -90
244 -246 164 -399 -25 -49 -43 -70 -81 -94 -44 -26 -58 -30 -125 -30 -67 0
-85 4 -146 35 -90 45 -211 159 -253 238 -35 66 -56 88 -92 96 -37 8 -57 -4
-293 -174 -143 -103 -220 -164 -228 -182 -25 -60 32 -195 139 -329 269 -334
764 -500 1176 -395 353 91 587 347 693 756 82 320 3 628 -217 851 -97 98 -171
149 -285 198 -44 18 -81 35 -83 36 -2 2 63 128 74 143 1 2 162 -49 358 -112
238 -78 364 -114 380 -110 13 3 33 15 44 27 10 12 60 148 110 304 81 250 90
285 81 313 -6 17 -23 37 -38 44 -39 20 -1258 416 -1278 415 -10 0 -27 -5 -38
-10z m664 -269 c338 -111 616 -202 618 -203 3 -4 -168 -531 -176 -539 -3 -4
-177 48 -386 116 l-380 124 -73 -145 c-40 -80 -72 -146 -70 -148 2 -1 35 -13
73 -25 295 -96 500 -317 559 -602 64 -309 -82 -725 -324 -925 -79 -66 -217
-136 -325 -165 -109 -29 -341 -31 -465 -5 -315 68 -593 266 -721 513 -22 42
-39 86 -37 97 2 13 78 74 215 173 117 85 214 154 217 154 2 0 21 -30 42 -66
48 -82 178 -208 259 -251 138 -72 238 -79 351 -23 145 71 213 256 152 417 -30
82 -127 177 -228 226 -143 69 -439 138 -527 124 -30 -5 -34 -4 -30 11 5 17
593 1278 616 1320 6 12 15 22 18 22 4 0 283 -90 622 -200z"/>
<path d="M3225 4006 c-49 -13 -112 -34 -140 -46 -150 -65 -344 -241 -463 -420
-112 -169 -230 -425 -295 -640 -139 -458 -155 -807 -53 -1110 91 -268 320
-470 622 -550 228 -59 400 -48 593 41 366 169 668 656 816 1314 66 297 70 526
13 755 -70 280 -237 480 -493 593 -190 83 -431 108 -600 63z m363 -72 c97 -20
233 -71 309 -115 32 -19 96 -72 143 -119 72 -71 94 -101 133 -180 139 -284
139 -662 0 -1120 -187 -617 -481 -999 -843 -1096 -86 -23 -269 -23 -367 -1
-261 60 -462 204 -567 405 -74 144 -98 251 -103 463 -6 207 8 326 67 554 80
315 205 602 349 805 62 88 193 223 267 276 177 126 397 172 612 128z"/>
<path d="M3425 3401 c-157 -38 -283 -240 -428 -688 -75 -230 -108 -382 -115
-524 -8 -190 30 -288 131 -334 115 -54 226 -12 317 121 79 113 188 376 269
646 118 390 130 592 42 699 -49 59 -149 96 -216 80z m120 -100 c113 -62 98
-291 -47 -741 -141 -437 -268 -650 -388 -650 -62 0 -99 25 -127 86 -24 54 -25
63 -21 183 8 189 83 482 193 748 141 340 255 449 390 374z"/>
<path d="M5235 3410 c-336 -44 -564 -241 -657 -565 -19 -67 -23 -104 -23 -220
1 -125 4 -149 28 -220 94 -282 339 -484 694 -572 114 -28 287 -37 383 -20 24
4 41 4 36 0 -4 -4 -254 -181 -554 -393 -576 -406 -593 -420 -571 -477 5 -13
65 -97 134 -188 138 -179 160 -196 218 -171 18 8 248 167 512 354 264 186 481
338 482 338 1 -1 -13 -33 -32 -71 -81 -172 -106 -373 -66 -539 73 -304 315
-522 691 -623 93 -25 122 -28 255 -28 171 0 228 12 361 76 237 115 390 347
423 641 39 350 -198 679 -594 821 -168 60 -400 85 -524 56 -24 -5 -45 -8 -46
-7 -2 2 247 179 552 393 598 420 595 417 568 482 -17 41 -221 332 -249 355
-12 10 -35 18 -52 18 -34 0 -39 -3 -702 -472 -178 -126 -322 -225 -320 -221
155 304 162 558 23 796 -144 245 -431 414 -775 457 -93 11 -107 11 -195 0z
m192 -81 c322 -36 601 -205 722 -438 56 -108 72 -176 72 -301 0 -278 -154
-534 -386 -641 -192 -87 -411 -89 -657 -5 -145 49 -238 107 -344 211 -75 74
-99 105 -133 175 -61 126 -75 192 -68 330 12 264 139 482 342 587 111 57 176
75 343 92 7 0 56 -4 109 -10z m1901 -721 c61 -89 109 -165 105 -169 -5 -4
-579 -408 -1277 -899 l-1269 -892 -26 33 c-169 216 -219 288 -208 297 53 44
2542 1792 2551 1792 6 -1 62 -74 124 -162z m-566 -1083 c304 -64 536 -221 644
-440 49 -99 64 -165 64 -281 0 -280 -143 -525 -372 -639 -126 -62 -210 -78
-368 -72 -252 10 -489 108 -649 267 -85 84 -130 154 -169 262 -24 66 -27 86
-27 213 0 158 11 207 75 340 86 177 230 293 430 344 94 25 268 27 372 6z"/>
<path d="M5305 2836 c-61 -28 -87 -56 -117 -121 -46 -103 -23 -217 59 -284 83
-68 223 -92 302 -51 85 43 149 162 138 255 -10 96 -88 177 -201 210 -70 21
-123 18 -181 -9z m208 -85 c26 -12 56 -36 68 -52 47 -66 30 -170 -37 -229 -30
-26 -42 -30 -92 -30 -72 0 -150 35 -183 81 -48 68 -22 188 51 237 29 20 45 23
90 20 30 -2 77 -14 103 -27z"/>
<path d="M6592 1061 c-119 -31 -206 -184 -172 -305 36 -130 208 -221 342 -182
126 36 205 189 163 315 -38 115 -209 203 -333 172z m162 -98 c102 -51 130
-131 80 -230 -19 -40 -35 -57 -68 -72 -51 -25 -67 -26 -134 -6 -94 28 -148 94
-139 171 12 106 86 171 181 159 27 -3 63 -13 80 -22z"/>
</g>
</svg>
